<mxGraphModel><root><mxCell id="0"/><mxCell id="1" parent="0"/><mxCell id="2" value="User" style="shape=umlLifeline;perimeter=lifelinePerimeter;whiteSpace=wrap;container=1;dropTarget=0;collapsible=0;recursiveResize=0;outlineConnect=0;portConstraint=eastwest;newEdgeStyle={&quot;edgeStyle&quot;:&quot;elbowEdgeStyle&quot;,&quot;elbow&quot;:&quot;vertical&quot;,&quot;curved&quot;:0,&quot;rounded&quot;:0};size=65;" vertex="1" parent="1"><mxGeometry width="150" height="1102" as="geometry"/></mxCell><mxCell id="3" value="Server" style="shape=umlLifeline;perimeter=lifelinePerimeter;whiteSpace=wrap;container=1;dropTarget=0;collapsible=0;recursiveResize=0;outlineConnect=0;portConstraint=eastwest;newEdgeStyle={&quot;edgeStyle&quot;:&quot;elbowEdgeStyle&quot;,&quot;elbow&quot;:&quot;vertical&quot;,&quot;curved&quot;:0,&quot;rounded&quot;:0};size=65;" vertex="1" parent="1"><mxGeometry x="307" width="150" height="1102" as="geometry"/></mxCell><mxCell id="4" value="OpenAI" style="shape=umlLifeline;perimeter=lifelinePerimeter;whiteSpace=wrap;container=1;dropTarget=0;collapsible=0;recursiveResize=0;outlineConnect=0;portConstraint=eastwest;newEdgeStyle={&quot;edgeStyle&quot;:&quot;elbowEdgeStyle&quot;,&quot;elbow&quot;:&quot;vertical&quot;,&quot;curved&quot;:0,&quot;rounded&quot;:0};size=65;" vertex="1" parent="1"><mxGeometry x="530" width="150" height="1102" as="geometry"/></mxCell><mxCell id="5" value="loop" style="shape=umlFrame;dashed=1;pointerEvents=0;dropTarget=0;strokeColor=#B3B3B3;height=20;width=40" vertex="1" parent="1"><mxGeometry x="64" y="179" width="329" height="150" as="geometry"/></mxCell><mxCell id="6" value="[Authentication]" style="text;strokeColor=none;fillColor=none;align=center;verticalAlign=middle;whiteSpace=wrap;" vertex="1" parent="5"><mxGeometry x="40" width="289" height="20" as="geometry"/></mxCell><mxCell id="7" value="alt" style="shape=umlFrame;dashed=1;pointerEvents=0;dropTarget=0;strokeColor=#B3B3B3;height=20;width=30" vertex="1" parent="1"><mxGeometry x="64" y="339" width="552" height="300" as="geometry"/></mxCell><mxCell id="8" value="[Authentication Success]" style="text;strokeColor=none;fillColor=none;align=center;verticalAlign=middle;whiteSpace=wrap;" vertex="1" parent="7"><mxGeometry x="30" width="522" height="20" as="geometry"/></mxCell><mxCell id="9" value="[Authentication Failure]" style="shape=line;dashed=1;whiteSpace=wrap;verticalAlign=top;labelPosition=center;verticalLabelPosition=middle;align=center;strokeColor=#B3B3B3;" vertex="1" parent="7"><mxGeometry y="207" width="552" height="4" as="geometry"/></mxCell><mxCell id="10" value="loop" style="shape=umlFrame;dashed=1;pointerEvents=0;dropTarget=0;strokeColor=#B3B3B3;height=20;width=40" vertex="1" parent="1"><mxGeometry x="64" y="649" width="552" height="254" as="geometry"/></mxCell><mxCell id="11" value="[Interaction]" style="text;strokeColor=none;fillColor=none;align=center;verticalAlign=middle;whiteSpace=wrap;" vertex="1" parent="10"><mxGeometry x="40" width="512" height="20" as="geometry"/></mxCell><mxCell id="12" value="Request chat assistance" style="verticalAlign=bottom;edgeStyle=elbowEdgeStyle;elbow=vertical;curved=0;rounded=0;endArrow=block;" edge="1" parent="1" source="2" target="3"><mxGeometry relative="1" as="geometry"><Array as="points"><mxPoint x="237" y="107"/></Array></mxGeometry></mxCell><mxCell id="13" value="Acknowledge request" style="verticalAlign=bottom;edgeStyle=elbowEdgeStyle;elbow=vertical;curved=0;rounded=0;endArrow=block;" edge="1" parent="1" source="3" target="2"><mxGeometry relative="1" as="geometry"><Array as="points"><mxPoint x="240" y="159"/></Array></mxGeometry></mxCell><mxCell id="14" value="Provide credentials" style="verticalAlign=bottom;edgeStyle=elbowEdgeStyle;elbow=vertical;curved=0;rounded=0;endArrow=block;" edge="1" parent="1" source="2" target="3"><mxGeometry relative="1" as="geometry"><Array as="points"><mxPoint x="237" y="257"/></Array></mxGeometry></mxCell><mxCell id="15" value="Validate credentials" style="verticalAlign=bottom;edgeStyle=elbowEdgeStyle;elbow=vertical;curved=0;rounded=0;endArrow=block;" edge="1" parent="1" source="3" target="2"><mxGeometry relative="1" as="geometry"><Array as="points"><mxPoint x="240" y="309"/></Array></mxGeometry></mxCell><mxCell id="16" value="Request AI assistance" style="verticalAlign=bottom;edgeStyle=elbowEdgeStyle;elbow=vertical;curved=0;rounded=0;endArrow=block;" edge="1" parent="1" source="3" target="4"><mxGeometry relative="1" as="geometry"><Array as="points"><mxPoint x="502" y="417"/></Array></mxGeometry></mxCell><mxCell id="17" value="Provide AI model" style="verticalAlign=bottom;edgeStyle=elbowEdgeStyle;elbow=vertical;curved=0;rounded=0;dashed=1;dashPattern=2 3;endArrow=block;" edge="1" parent="1" source="4" target="3"><mxGeometry relative="1" as="geometry"><Array as="points"><mxPoint x="505" y="469"/></Array></mxGeometry></mxCell><mxCell id="18" value="Greet user and provide assistance" style="verticalAlign=bottom;edgeStyle=elbowEdgeStyle;elbow=vertical;curved=0;rounded=0;dashed=1;dashPattern=2 3;endArrow=block;" edge="1" parent="1" source="3" target="2"><mxGeometry relative="1" as="geometry"><Array as="points"><mxPoint x="240" y="521"/></Array></mxGeometry></mxCell><mxCell id="19" value="Unable to authenticate" style="verticalAlign=bottom;edgeStyle=elbowEdgeStyle;elbow=vertical;curved=0;rounded=0;dashed=1;dashPattern=2 3;endArrow=block;" edge="1" parent="1" source="3" target="2"><mxGeometry relative="1" as="geometry"><Array as="points"><mxPoint x="240" y="619"/></Array></mxGeometry></mxCell><mxCell id="20" value="Chat message" style="verticalAlign=bottom;edgeStyle=elbowEdgeStyle;elbow=vertical;curved=0;rounded=0;endArrow=block;" edge="1" parent="1" source="2" target="3"><mxGeometry relative="1" as="geometry"><Array as="points"><mxPoint x="237" y="727"/></Array></mxGeometry></mxCell><mxCell id="21" value="Process user message" style="verticalAlign=bottom;edgeStyle=elbowEdgeStyle;elbow=vertical;curved=0;rounded=0;endArrow=block;" edge="1" parent="1" source="3" target="4"><mxGeometry relative="1" as="geometry"><Array as="points"><mxPoint x="502" y="779"/></Array></mxGeometry></mxCell><mxCell id="22" value="Generate response" style="verticalAlign=bottom;edgeStyle=elbowEdgeStyle;elbow=vertical;curved=0;rounded=0;dashed=1;dashPattern=2 3;endArrow=block;" edge="1" parent="1" source="4" target="3"><mxGeometry relative="1" as="geometry"><Array as="points"><mxPoint x="505" y="831"/></Array></mxGeometry></mxCell><mxCell id="23" value="Display response" style="verticalAlign=bottom;edgeStyle=elbowEdgeStyle;elbow=vertical;curved=0;rounded=0;dashed=1;dashPattern=2 3;endArrow=block;" edge="1" parent="1" source="3" target="2"><mxGeometry relative="1" as="geometry"><Array as="points"><mxPoint x="240" y="883"/></Array></mxGeometry></mxCell><mxCell id="24" value="End chat session" style="verticalAlign=bottom;edgeStyle=elbowEdgeStyle;elbow=vertical;curved=0;rounded=0;endArrow=block;" edge="1" parent="1" source="2" target="3"><mxGeometry relative="1" as="geometry"><Array as="points"><mxPoint x="237" y="945"/></Array></mxGeometry></mxCell><mxCell id="25" value="Terminate session" style="verticalAlign=bottom;edgeStyle=elbowEdgeStyle;elbow=vertical;curved=0;rounded=0;endArrow=block;" edge="1" parent="1" source="3" target="2"><mxGeometry relative="1" as="geometry"><Array as="points"><mxPoint x="240" y="997"/></Array></mxGeometry></mxCell></root></mxGraphModel>